<svg xmlns="http://www.w3.org/2000/svg" viewBox="0 0 128 128">
  <defs>
    <linearGradient id="grad" x1="0%" y1="0%" x2="100%" y2="100%">
      <stop offset="0%" style="stop-color:#0d9488;stop-opacity:1" />
      <stop offset="100%" style="stop-color:#14b8a6;stop-opacity:1" />
    </linearGradient>
  </defs>
  <rect width="128" height="128" rx="24" fill="url(#grad)"/>
  <g fill="#fff">
    <!-- Quote marks -->
    <path d="M32 40c0-4.4 3.6-8 8-8h12c4.4 0 8 3.6 8 8v16c0 4.4-3.6 8-8 8h-4l-4 12-4-12h-4c-2.2 0-4-1.8-4-4V40z" opacity="0.9"/>
    <path d="M68 40c0-4.4 3.6-8 8-8h12c4.4 0 8 3.6 8 8v16c0 4.4-3.6 8-8 8h-4l-4 12-4-12h-4c-2.2 0-4-1.8-4-4V40z" opacity="0.9"/>
    <!-- AI circuit lines -->
    <rect x="28" y="88" width="72" height="4" rx="2" opacity="0.6"/>
    <rect x="36" y="96" width="56" height="3" rx="1.5" opacity="0.4"/>
    <rect x="44" y="103" width="40" height="2" rx="1" opacity="0.3"/>
  </g>
</svg>
